<?xml version="1.0" encoding="UTF-8" standalone="no"?>
<!DOCTYPE svg PUBLIC "-//W3C//DTD SVG 1.1//EN" "http://www.w3.org/Graphics/SVG/1.1/DTD/svg11.dtd">
<svg width="100%" height="100%" viewBox="0 0 160 174" version="1.1" xmlns="http://www.w3.org/2000/svg" xmlns:xlink="http://www.w3.org/1999/xlink" xml:space="preserve" xmlns:serif="http://www.serif.com/" style="fill-rule:evenodd;clip-rule:evenodd;stroke-linejoin:round;stroke-miterlimit:2;">
    <g transform="matrix(1,0,0,1,-75.4137,-75.4247)">
        <path d="M175.485,238.689C213.154,228.596 234.566,186.175 223.27,144.018C211.974,101.86 172.22,75.829 134.551,85.922C96.881,96.016 75.47,138.437 86.766,180.594C98.062,222.751 137.815,248.783 175.485,238.689Z" style="fill:white;"/>
        <path d="M177.642,246.74C135.791,257.954 91.265,229.587 78.715,182.751C66.165,135.915 90.543,89.085 132.394,77.871C174.244,66.658 218.771,95.023 231.321,141.861C243.871,188.697 219.492,235.527 177.642,246.74ZM173.328,230.638C206.817,221.665 225.262,183.655 215.219,146.175C205.176,108.695 170.198,85 136.708,93.973C103.218,102.947 84.774,140.957 94.817,178.437C104.86,215.916 139.837,239.612 173.328,230.638Z" style="fill:rgb(68,182,73);"/>
        <path d="M175.118,221.866C148.835,228.908 120.737,211.3 112.855,181.885C104.973,152.471 120.502,123.173 146.786,116.13C173.069,109.087 201.167,126.695 209.049,156.111C216.931,185.525 201.402,214.824 175.118,221.866ZM170.804,205.764C188.727,200.962 198.322,180.483 192.947,160.425C187.572,140.366 169.024,127.429 151.1,132.232C133.177,137.034 123.582,157.512 128.957,177.571C134.332,197.629 152.881,210.566 170.804,205.764Z" style="fill:rgb(68,182,73);"/>
        <path d="M171.211,195.693C159.912,198.721 147.765,191.261 144.376,178.615C140.988,165.971 147.777,153.436 159.077,150.409C170.376,147.381 182.523,154.841 185.912,167.487C189.3,180.131 182.509,192.666 171.211,195.693ZM168.515,185.629C174.587,184.001 177.668,176.98 175.848,170.184C174.026,163.386 167.847,158.846 161.773,160.473C155.7,162.101 152.62,169.122 154.44,175.918C156.262,182.716 162.441,187.256 168.515,185.629Z" style="fill:rgb(68,182,73);"/>
        <path d="M167.611,181.559C171.638,180.48 173.927,175.945 172.719,171.438C171.512,166.931 167.262,164.148 163.235,165.227C159.207,166.306 156.918,170.841 158.126,175.348C159.334,179.855 163.584,182.638 167.611,181.559Z"/>
        <path d="M167.88,182.564C163.332,183.782 158.486,180.708 157.121,175.617C155.757,170.526 158.416,165.441 162.966,164.222C167.515,163.004 172.36,166.078 173.724,171.169C175.088,176.26 172.429,181.345 167.88,182.564ZM167.342,180.554C170.847,179.615 172.766,175.631 171.714,171.707C170.664,167.784 167.01,165.292 163.504,166.232C159.998,167.171 158.079,171.155 159.131,175.079C160.182,179.002 163.836,181.494 167.342,180.554Z"/>
    </g>
</svg>
