<?xml version="1.0" encoding="UTF-8" standalone="no"?><!DOCTYPE svg PUBLIC "-//W3C//DTD SVG 1.1//EN" "http://www.w3.org/Graphics/SVG/1.1/DTD/svg11.dtd"><svg width="100%" height="100%" viewBox="0 0 3139 725" version="1.1" xmlns="http://www.w3.org/2000/svg" xmlns:xlink="http://www.w3.org/1999/xlink" xml:space="preserve" xmlns:serif="http://www.serif.com/" style="fill-rule:evenodd;clip-rule:evenodd;stroke-linejoin:round;stroke-miterlimit:2;"><path d="M1786.23,604.551c0,-12.554 -5,-23.508 -14.966,-32.916c-9.984,-9.409 -23.525,-17.138 -40.609,-23.196c-17.116,-6.075 -37.066,-10.554 -59.841,-13.504c-22.796,-2.917 -47.017,-4.375 -72.675,-4.375l-100.434,-0l0,147.375l113.263,-0c53.421,-0 95.992,-6.179 127.708,-18.521c31.704,-12.313 47.554,-30.625 47.554,-54.863m-198.02,-119.966c24.095,-0 46.65,-1.667 67.587,-4.984c20.938,-3.333 39.025,-8.104 54.304,-14.337c15.259,-6.25 27.154,-13.733 35.675,-22.483c8.509,-8.75 12.763,-18.717 12.763,-29.95c-0,-20.78 -13.3,-36.388 -39.929,-46.788c-26.617,-10.417 -61.217,-15.608 -103.788,-15.608l-117.117,-0l0,134.15l90.505,-0Zm291.7,121.996c-0,17.225 -6.58,33.091 -19.738,47.604c-13.162,14.516 -31.825,26.929 -56.008,37.241c-24.184,10.313 -53.179,18.28 -86.979,23.975c-33.805,5.659 -71.321,8.509 -112.571,8.509l-200.609,-0l0,-419.446l219.83,-0c34.166,-0 65.466,2.412 93.941,7.221c28.438,4.812 52.813,11.737 73.104,20.75c20.263,9.025 35.905,19.808 46.93,32.375c11.025,12.587 16.562,26.425 16.562,41.512c0,24.271 -13.717,44.721 -41.112,61.267c-27.396,16.546 -62.446,29.029 -105.138,37.412c52.638,5.888 94.425,17.363 125.383,34.375c30.938,17.067 46.405,39.446 46.405,67.205" style="fill:#030404;fill-rule:nonzero;"/><path d="M2655.47,304.464l0,47.242l-208.679,-0l-0,372.204l-97.933,-0l-0,-372.204l-208.684,-0l0,-47.242l515.296,-0Z" style="fill:#030404;fill-rule:nonzero;"/><path d="M1248.83,231.564c-19.562,-0 -36.925,-9.358 -48.975,-23.942l0,516.288l97.934,-0l-0,-516.25c-12.046,14.546 -29.409,23.904 -48.959,23.904" style="fill:#44b649;fill-rule:nonzero;"/><path d="M1288.38,178.481c0,19.621 -17.602,35.808 -39.562,35.808c-21.96,-0 -39.558,-16.187 -39.558,-35.808c-0,-19.622 17.598,-35.809 39.558,-35.809c21.96,0 39.562,16.188 39.562,35.809Zm-8.666,-0c-0,-15.122 -13.972,-27.142 -30.896,-27.142c-16.924,-0 -30.892,12.02 -30.892,27.142c0,15.121 13.968,27.141 30.892,27.141c16.924,0 30.896,-12.02 30.896,-27.141Z" style="fill:#44b649;"/><path d="M425.952,713.814c-174.38,46.726 -359.906,-71.469 -412.197,-266.62c-52.29,-195.151 49.282,-390.274 223.662,-437.001c174.375,-46.722 359.906,71.469 412.197,266.624c52.29,195.151 -49.287,390.275 -223.662,436.997Zm-17.977,-67.092c139.539,-37.388 216.391,-195.764 174.547,-351.928c-41.844,-156.168 -187.589,-254.897 -327.128,-217.509c-139.543,37.392 -216.391,195.768 -174.547,351.932c41.844,156.164 187.585,254.897 327.128,217.505Z" style="fill:#44b649;"/><path d="M415.435,610.172c-109.514,29.343 -226.588,-44.025 -259.429,-166.586c-32.842,-122.561 31.863,-244.637 141.377,-273.98c109.515,-29.348 226.589,44.02 259.431,166.586c32.841,122.561 -31.864,244.637 -141.379,273.98Zm-17.976,-67.091c74.679,-20.01 114.658,-105.336 92.263,-188.912c-22.395,-83.579 -99.681,-137.485 -174.361,-117.472c-74.68,20.01 -114.659,105.335 -92.264,188.911c22.395,83.577 99.682,137.482 174.362,117.473Z" style="fill:#44b649;"/><path d="M399.157,501.12c-47.079,12.614 -97.695,-18.468 -111.816,-71.158c-14.116,-52.686 14.175,-104.915 61.255,-117.529c47.079,-12.614 97.694,18.468 111.816,71.158c14.115,52.685 -14.18,104.915 -61.255,117.529Zm-11.237,-41.937c25.303,-6.781 38.142,-36.035 30.554,-64.354c-7.591,-28.323 -33.335,-47.24 -58.642,-40.459c-25.306,6.78 -38.141,36.035 -30.554,64.354c7.591,28.323 33.335,47.239 58.642,40.459Z" style="fill:#44b649;"/><path d="M384.155,442.226c16.78,-4.495 26.317,-23.391 21.284,-42.17c-5.029,-18.78 -22.738,-30.375 -39.517,-25.88c-16.783,4.496 -26.321,23.392 -21.287,42.171c5.033,18.779 22.741,30.375 39.52,25.879Z"/><path d="M385.277,446.412c-18.953,5.078 -39.143,-7.731 -44.828,-28.943c-5.685,-21.212 5.394,-42.4 24.352,-47.478c18.953,-5.079 39.143,7.731 44.823,28.943c5.686,21.212 -5.394,42.4 -24.347,47.478Zm-2.243,-8.371c14.606,-3.914 22.601,-20.517 18.219,-36.864c-4.378,-16.347 -19.603,-26.728 -34.21,-22.815c-14.609,3.914 -22.604,20.516 -18.223,36.863c4.382,16.348 19.607,26.729 34.214,22.816Z"/><path d="M1260.95,109.36l-24.27,-0l11.041,-80.609l13.229,80.609Z" style="fill:#44b649;fill-rule:nonzero;"/><path d="M1309.93,161.101l-12.138,-21.02l75.333,-30.713l-63.195,51.733Z" style="fill:#44b649;fill-rule:nonzero;"/><path d="M1187.71,161.101l12.133,-21.02l-75.329,-30.713l63.196,51.733Z" style="fill:#44b649;fill-rule:nonzero;"/><path d="M1064.88,520.16c-21.304,-10.713 -44.725,-19.934 -70.279,-27.709c-25.554,-7.762 -49.671,-15.016 -72.396,-21.737c-22.708,-6.7 -42.05,-12.675 -58.02,-17.933c-15.955,-5.263 -28.75,-10.713 -38.334,-16.371c-9.566,-5.663 -16.491,-11.771 -20.746,-18.284c-4.27,-6.508 -6.391,-14.166 -6.391,-22.983c-0,-39.446 42.937,-59.167 128.821,-59.167c29.808,0 59.254,2.292 88.366,6.909c29.084,4.616 55,10.487 77.709,17.637l3.266,-8.316c-20.158,-7.325 -33.212,-22.1 -29.775,-34.896c1.354,-5.017 5.175,-8.975 10.467,-11.788c-15.571,-3.525 -32.308,-6.65 -50.483,-9.254c-32.309,-4.617 -65.471,-6.925 -99.55,-6.925c-33.367,0 -63.888,2.308 -91.563,6.925c-27.675,4.638 -51.458,11.563 -71.337,20.783c-19.859,9.255 -35.313,20.78 -46.3,34.655c-11.025,13.833 -16.513,29.808 -16.513,47.845c0,15.971 5.142,29.93 15.454,41.909c10.259,11.929 23.938,22.641 40.971,32.1c17.029,9.429 36.738,17.85 59.096,25.208c22.346,7.313 45.592,14.375 69.742,21.079c21.283,5.867 41.337,11.563 60.154,16.996c18.804,5.45 35.296,11.667 49.496,18.575c14.204,6.963 25.366,14.725 33.541,23.3c8.163,8.613 12.242,19.029 12.242,31.196c-0,21.842 -14.2,38.525 -42.588,50.054c-28.404,11.563 -65.641,17.325 -111.787,17.325c-31.946,0 -63.717,-2.308 -95.296,-6.925c-31.579,-4.6 -68.35,21.196 -89.929,25.921l-16.008,2.429c29.808,8.421 62.637,14.688 98.491,18.888c35.834,4.204 70.796,6.304 104.859,6.304c34.775,-0 67.241,-2.746 97.433,-8.196c30.154,-5.467 56.421,-13.229 78.783,-23.3c22.363,-10.067 40.088,-22.238 53.229,-36.525c13.125,-14.271 19.705,-30.454 19.705,-48.492c-0,-18.904 -7.1,-35.504 -21.3,-49.775c-14.205,-14.271 -31.93,-26.75 -53.23,-37.462" style="fill:#44b649;fill-rule:nonzero;"/><path d="M3063.66,520.16c-21.304,-10.713 -44.725,-19.934 -70.279,-27.709c-25.555,-7.762 -49.671,-15.016 -72.396,-21.737c-22.709,-6.7 -42.05,-12.675 -58.021,-17.933c-15.954,-5.263 -28.75,-10.713 -38.333,-16.371c-9.567,-5.663 -16.492,-11.771 -20.746,-18.284c-4.271,-6.508 -6.392,-14.166 -6.392,-22.983c0,-39.446 42.938,-59.167 128.821,-59.167c29.808,0 59.254,2.292 88.367,6.909c29.083,4.616 55,10.487 77.708,17.637l3.267,-8.316c-20.159,-7.325 -33.213,-22.1 -29.775,-34.896c1.354,-5.017 5.175,-8.975 10.466,-11.788c-15.571,-3.525 -32.308,-6.65 -50.483,-9.254c-32.308,-4.617 -65.471,-6.925 -99.55,-6.925c-33.367,0 -63.888,2.308 -91.563,6.925c-27.675,4.638 -51.458,11.563 -71.337,20.783c-19.858,9.255 -35.313,20.78 -46.3,34.655c-11.025,13.833 -16.513,29.808 -16.513,47.845c0,15.971 5.142,29.93 15.455,41.909c10.258,11.929 23.937,22.641 40.97,32.1c17.03,9.429 36.738,17.85 59.096,25.208c22.346,7.313 45.592,14.375 69.742,21.079c21.283,5.867 41.337,11.563 60.154,16.996c18.804,5.45 35.296,11.667 49.496,18.575c14.204,6.963 25.367,14.725 33.542,23.3c8.162,8.613 12.241,19.029 12.241,31.196c0,21.842 -14.2,38.525 -42.587,50.054c-28.404,11.563 -65.642,17.325 -111.788,17.325c-31.946,0 -63.716,-2.308 -95.296,-6.925c-31.579,-4.6 -68.35,21.196 -89.929,25.921l-16.008,2.429c29.808,8.421 62.637,14.688 98.492,18.888c35.833,4.204 70.795,6.304 104.858,6.304c34.775,-0 67.242,-2.746 97.433,-8.196c30.154,-5.467 56.421,-13.229 78.784,-23.3c22.362,-10.067 40.087,-22.238 53.229,-36.525c13.125,-14.271 19.704,-30.454 19.704,-48.492c-0,-18.904 -7.1,-35.504 -21.3,-49.775c-14.204,-14.271 -31.929,-26.75 -53.229,-37.462" style="fill:#030404;fill-rule:nonzero;"/><path d="M2012.01,231.564c-19.567,-0 -36.93,-9.358 -48.975,-23.942l-0,516.288l97.933,-0l-0,-516.25c-12.05,14.546 -29.408,23.904 -48.958,23.904" style="fill:#030404;"/><path d="M2051.55,178.481c0,19.621 -17.598,35.808 -39.558,35.808c-21.96,-0 -39.558,-16.187 -39.558,-35.808c-0,-19.622 17.598,-35.809 39.558,-35.809c21.96,0 39.558,16.187 39.558,35.809Zm-8.666,-0c-0,-15.122 -13.968,-27.142 -30.892,-27.142c-16.924,-0 -30.892,12.02 -30.892,27.142c0,15.121 13.968,27.141 30.892,27.141c16.924,0 30.892,-12.02 30.892,-27.141Z" style="fill:#231f20;"/><path d="M2024.13,109.36l-24.27,-0l11.041,-80.609l13.229,80.609Z" style="fill:#030404;"/><path d="M2073.11,161.101l-12.134,-21.02l75.329,-30.713l-63.195,51.733Z" style="fill:#030404;"/><path d="M1950.89,161.101l12.137,-21.02l-75.333,-30.713l63.196,51.733Z" style="fill:#030404;"/></svg>